<svg xmlns="http://www.w3.org/2000/svg" viewBox="0 0 4000 4000"><path d="M748,0c-.56,14.31-1.73,28.62-1.59,42.92.81,82.99,15.4,163.49,43.74,241.56,25.93,71.45,62.94,136.82,109.76,196.31,26.95,34.24,56.89,66.18,86.22,98.48,25.08,27.62,51.18,54.33,76.9,81.36,36.57,38.44,75.49,74.28,117.06,107.3,89.77,71.31,178.84,143.49,269.08,214.19,65.86,51.6,134.38,99.59,205.36,144,64.27,40.21,132.14,73.35,201.42,103.86,70.19,30.91,141.93,57.46,215.6,78.8,8.63,2.5,17.34,4.7,26.04,6.97.89.23,1.93-.07,5.07-.23-4.78-2.58-7.84-4.29-10.96-5.9-46.4-24.08-87.4-54.87-119.73-96.41-23.92-30.74-40.79-64.6-46.84-103.5-4.98-31.95-1.17-63.02,8.04-93.66,17.42-57.94,47.96-108.15,89.83-151.59,68.7-71.28,151.18-120.46,244.5-152.24,48.32-16.46,97.85-27.66,148.14-36.27,31.53-5.39,63.02-10.58,94.94-12.81,18.94-1.32,37.89-2.71,56.85-3.18,29.97-.75,59.97-1.1,89.95-1.03,62.79.13,124.79,8.01,186.71,18,51.39,8.29,102.08,18.98,151.81,34.26,70.44,21.64,138.83,48.73,206.48,77.84,66.08,28.44,132.23,56.73,198.74,84.16,41.6,17.15,84.52,30.58,128.68,39.69,56.9,11.74,114.01,13.79,170.24-2.01,92.36-25.95,153.4-85.35,181.8-177.27,12.69-41.07,16.83-83.47,16.95-126.32.26-88.24-16.51-173.48-45.5-256.51-36.19-103.64-89.16-197.84-160.37-281.48-17.69-20.78-37.19-40.02-55.87-59.95-2.96-3.16-6.02-6.22-9.04-9.32,12,0,24,0,36,0,2.23,2.8,4.23,5.83,6.73,8.35,25.84,26.07,50.25,53.41,72.61,82.52,75.79,98.65,130.72,207.73,163.7,327.77,14.15,51.49,22.82,103.98,26.33,157.17,2.03,30.86,1.66,61.86-.86,92.82-3.28,40.38-9.95,80.03-24.47,117.92-38.88,101.42-112.69,159.33-220.22,173.01-55.01,7-109.69,2.35-163.65-10.83-59.42-14.52-116.58-35.51-172.58-59.73-68.48-29.62-136.52-60.23-204.94-90-53.15-23.12-106.98-44.58-162.43-61.69-58.41-18.02-118.33-28.44-178.91-35.6-51.15-6.04-102.41-11.1-153.86-13.06-42.89-1.64-85.84-1.87-128.8.68-30.55,1.82-60.96,4.33-91.28,8.33-53.26,7.03-105.44,18.76-156.17,36.5-81.85,28.62-155.83,70.46-218.54,131.05-37.36,36.1-67.89,76.83-85.89,126.11-11.36,31.11-17.09,62.86-11.79,96.05,6.72,42.08,25.96,78.04,53.25,110.1,30.94,36.34,68.95,63.54,111.11,85.26,51.84,26.7,106.75,44.8,163.51,57.43,46.77,10.4,94.02,17.73,141.75,22.41,41.07,4.03,82.2,6.28,123.42,6.99,38.6.66,77.2-.17,115.73-3.12,28.82-2.2,57.74-3.4,86.46-6.48,45.24-4.84,90.61-9.37,135.47-16.8,61.32-10.16,122.25-22.71,183.27-34.62,47.67-9.3,95.09-19.89,142.86-28.6,41.2-7.51,82.63-13.92,124.15-19.41,38.86-5.14,77.94-8.64,116.97-12.43,14.88-1.45,29.87-1.78,44.82-2.47,25.24-1.17,50.47-2.68,75.72-3.16,18.61-.35,37.26.58,55.88,1.22,16.95.59,33.91,1.18,50.82,2.44,34.18,2.55,68.1,7.27,101.77,13.73,69.36,13.31,136.04,34.73,199.57,65.75,4.73,2.31,9.64,4.26,14.46,6.38v56c-3.69-2.25-7.33-4.59-11.09-6.73-70.12-39.95-145.29-66.01-224.27-81.59-41.5-8.18-83.47-13.16-125.66-15.05-35.26-1.58-70.65-1.58-105.94-.67-32.2.83-64.35,3.65-96.5,5.94-16.57,1.18-33.13,2.69-49.61,4.8-38.56,4.93-77.08,10.24-115.59,15.53-9.87,1.35-19.68,3.18-29.52,4.79,1.3,2.1,2.45,2.52,3.63,2.6,29.19,2.03,58.39,3.87,87.56,6.05,37.24,2.79,73.9,9.59,110.4,17.16,78.19,16.23,152.25,43.62,221.61,83.36,41.78,23.94,81.73,50.58,115.49,85.21,85.25,87.45,135.68,192.47,155.48,312.55,7.13,43.23,9.04,86.73,6.33,130.53-2.64,42.63-7.3,84.98-17.65,126.44-24.99,100.12-68.09,191.98-129.55,274.81-59.97,80.83-128.07,154.33-204.8,219.67-2.04,1.74-3.84,3.75-7.13,6.99,4.93-.39,7.6-.38,10.18-.83,51.48-8.94,102.62-19.4,152.92-33.78,88.39-25.28,172.95-59.85,253.71-103.76v24c-2.42,1-4.94,1.82-7.25,3.04-144.7,76.4-299.02,122.29-460.68,144.44-41.47,5.68-83.15,10.03-124.83,13.95-37.06,3.49-74.23,5.83-111.39,8.12-29.21,1.8-58.46,2.85-87.71,4.08-33.91,1.43-67.83,2.64-101.74,4.04-30.9,1.27-61.82,2.36-92.7,4.07-28.87,1.6-57.73,3.63-86.56,5.96-46.43,3.74-92.56,9.9-138.46,17.9-69.43,12.1-137.16,30.17-202.6,56.47-80.56,32.38-153.98,76.15-216.94,136.51-38.12,36.55-70.03,77.67-91.91,126.05-15.79,34.92-26.55,71.24-27.21,109.8-.97,57.26,14.56,110.08,46.14,157.8,45.44,68.66,106.49,118.63,182.89,149.46,15.7,6.33,31.78,12.05,48.13,16.38,26.83,7.1,54.46,9.82,82.14,10.03,21.6.16,43.59.59,64.77-2.94,61.37-10.25,122.2-23.4,182.34-39.54,31.22-8.38,62.16-18.03,91.54-31.39,78.55-35.73,155.15-75.44,230.84-116.83,103.76-56.73,207.02-114.38,310.41-171.79,8.99-4.99,17.63-10.76,25.92-16.87,78.69-57.96,154.19-119.78,226.09-186.01,66-60.79,129.22-124.32,189.09-191.15,23.52-26.26,46.46-53.03,69.67-79.57v38c-1.65,1.53-3.42,2.95-4.93,4.6-30.34,33.22-60.09,66.99-91.06,99.61-82.96,87.37-171.74,168.46-265.9,243.66-1.85,1.47-3.5,3.19-5.25,4.79,3.41-.28,6.01-1.56,8.54-2.96,110.66-61.48,221.3-122.99,332-184.4,8.66-4.8,17.73-8.88,26.6-13.29v28c-3.01,1.27-6.14,2.31-9.01,3.85-48.73,26.11-97.38,52.36-146.14,78.42-91.09,48.67-180.74,99.9-269.53,152.59-96.82,57.45-192.81,116.29-289.38,174.16-45.13,27.04-90.78,53.23-136.21,79.76-1.13.66-2.53.84-3.81,1.25.59.77,1.19,1.53,1.78,2.3,3.27-.31,6.54-.57,9.8-.93,21.52-2.39,42.98-5.44,64.55-7.08,77.04-5.87,153.81-2.43,230.28,8.16,92.97,12.87,183.91,34.33,272.3,66.01,96.56,34.61,188.72,78.42,275.38,133.51v38c-.61-.24-1.28-.38-1.81-.73-89.51-60.77-185.67-108.32-287.49-144.58-12.53-4.46-25.05-10-38.03-11.94-23.95-3.57-48.2-5.52-72.4-6.9-27.86-1.59-54.86,3.99-81.56,11.83-51.52,15.13-102.14,32.41-149.81,57.55-64.06,33.78-125.39,71.91-183.64,114.89-108.42,80-212.58,165.12-309.81,258.55-1.83,1.76-3.52,3.68-5.27,5.53,2.1.6,3.5.05,4.91-.48,27.39-10.32,54.5-21.47,82.25-30.68,20.79-6.9,42.69-10.41,63.61-16.99,41.49-13.05,84.17-19.85,127.03-25.79,48.85-6.77,98.02-10.31,147.28-11.35,44.95-.95,89.96-1.2,134.9-.12,49.58,1.19,99.01,5.43,148.33,10.87,51.96,5.73,103.67,13.08,154.93,23.31,90.15,17.99,178.93,41.35,266.59,69.03v34c-3.84-1.02-7.71-1.9-11.5-3.07-85.98-26.44-172.84-49.62-261.23-66.4-96.59-18.34-194.12-30.02-292.37-33.74-51.91-1.97-103.95-.43-155.93-.38-2.3,0-4.6.94-9.06,1.91,3.3,1.09,4.21,1.48,5.16,1.69,54.86,12.28,107.1,31.92,157.67,56.24,85.47,41.1,161.53,95.53,229.26,161.76h-36c-9.15-8.63-17.92-17.71-27.5-25.83-77.76-65.93-163.94-117.22-261.02-149.44-46.97-15.59-95.16-25.35-144.53-28.03-22.87-1.24-45.91.11-68.85.9-52.88,1.83-104.11,13.32-154.68,27.93-18.84,5.44-37.43,11.91-55.74,18.93-52.12,19.99-102.15,44.24-146.37,78.71-31.77,24.76-62.26,51.16-93.32,76.83h-38c.75-1.04,1.33-2.28,2.28-3.08,37.6-31.39,75.57-62.34,112.76-94.2,32.39-27.74,64.75-55.62,95.66-84.98,82.49-78.35,168.68-152.27,258.6-221.95,64.86-50.26,131.66-97.49,202.54-139.07,67.14-39.38,137.9-69.39,212.95-89.57,10.98-2.95,22.02-5.65,34.01-8.71-1.81-1.08-2.54-1.81-3.39-1.99-55.8-11.54-112.08-19.94-168.91-23.93-37.89-2.66-75.83-3.21-113.84-1.22-35.62,1.86-71.02,5.29-106.31,10.4-74.63,10.81-146.19,31.55-214.46,63.94-140.1,66.47-284.79,121.36-432.48,168.32-58.34,18.55-117.09,35.87-176,52.51-40.64,11.48-81.69,21.76-122.92,30.91-49.33,10.95-99,20.49-149.42,25.12-35.75,3.28-71.5,7.52-107.34,8.76-37.22,1.3-74.57.12-111.83-1.15-23.56-.8-47.09-3.29-70.54-5.82-57.17-6.18-112.85-19.11-166.82-38.95-54.2-19.92-104.51-46.82-148.22-85.1-33.73-29.54-62.8-62.53-77.91-105.8-.88-2.51-2.03-4.93-3.2-7.32-18.19-37.17-24.14-76.6-21.7-117.57.4-6.74.91-13.47,1.37-20.2-2.43,2.32-3.79,4.89-4.93,7.55-29.58,69.05-53.29,140.02-69.32,213.46-13.67,62.65-22.12,125.92-21.71,190.19.22,34.36,2.67,68.57,7.14,102.65,8.01,61.1,22.82,120.34,47.95,176.79h-60c-.75-3.19-1.23-6.48-2.3-9.56-18.91-54.47-29.14-110.7-33.78-168.01-2.23-27.55-3.35-55.2-5.22-82.78-2.33-34.28-3.28-68.55-.24-102.84,5.34-60.12,14.71-119.64,26.77-178.75,13.59-66.66,33.3-131.65,54.06-196.34,23.3-72.59,47.12-145.01,65.61-219.04,14.85-59.42,24.5-119.43,21.12-180.94-2.25-40.93-12.9-79.42-34.42-114.58-1.26-2.05-2.97-3.83-5.89-7.54,0,6.36.31,10.31-.05,14.2-1.54,16.21-2.11,32.62-5.19,48.54-6.85,35.44-19.26,69.29-33.5,102.34-32.23,74.84-71.97,145.65-116.09,214.08-46.61,72.29-97.86,141.33-147.78,211.3-50.52,70.81-100.23,142.1-142.42,218.36-45.57,82.36-86.03,166.91-113.84,257.12-19.57,63.51-33.88,128.04-38.83,194.45h-34c.63-4.28,1.28-8.55,1.88-12.84,2.38-17.15,4.22-34.4,7.21-51.44,13.93-79.38,37.69-155.94,67.96-230.48,48.72-119.99,111.7-232.21,186.38-337.9,49.8-70.48,100.29-140.47,149.73-211.21,51.42-73.57,97.33-150.47,135.86-231.64,19.03-40.11,35.65-81.16,43.96-124.99,5.79-30.56,4.66-61.09-4.71-90.91-5.97-19-16.91-33.54-35.16-43.8-52.11-29.29-108.45-41.52-167.3-44.3-25.91-1.22-51.81.49-77.71,2.94-40.87,3.88-80.94,11.63-120.54,22.04-56.52,14.85-110.98,35.4-163.75,60.43-98.66,46.79-188.39,106.56-265.58,184.23-75.28,75.75-135.21,161.94-175.53,261.25-22.28,54.87-37.27,111.79-46.29,170.2-4.51,29.23-7.83,58.74-9.81,88.25-2.07,30.9-.2,61.84,2.99,92.72,4,38.61,11.96,76.18,25.43,112.61,26.79,72.45,61.48,140.96,102.4,206.38,15.21,24.31,31.23,47.99,50.37,69.5,21.04,23.64,41.67,47.65,62.19,71.74,10.33,12.13,20.01,24.8,29.99,37.23h-50c-1.04-1.94-1.78-4.14-3.16-5.79-13.22-15.85-26.32-31.8-39.9-47.33-19.05-21.79-38.53-43.21-57.72-64.89-5.95-6.73-11.32-13.97-17.29-20.68-43.65-48.98-88.96-96.37-135.98-142.13-61.91-60.26-127.55-116.01-198.73-165.09-3.48-2.4-7.47-4.07-11.22-6.08,0-12.67,0-25.33,0-38,5.49,2.88,11.3,5.28,16.43,8.69,87.45,58.06,167.66,124.97,242.33,198.65,2.42,2.39,4.96,4.65,7.45,6.97.34-3.29-.58-5.35-1.53-7.4-68.23-146.38-98.95-300.42-93.77-461.67,1.69-52.67,7.36-104.99,18.34-156.6,19.05-89.57,51.34-174.29,95.7-254.28,60.01-108.2,136.29-203.49,229.17-285.39,2.74-2.41,5.42-4.89,8.13-7.34-4.46.3-7.76,1.81-11.03,3.38-59.4,28.61-118.58,57.67-178.27,85.68-42.87,20.12-84.51,42.4-125.39,66.23-22.43,13.08-44.79,26.37-67.87,38.24-44.12,22.68-88.73,44.42-133.16,66.49-2.05,1.02-4.34,1.57-6.52,2.34,0-9.33,0-18.67,0-28,3.34-1.46,6.78-2.74,10-4.42,99.81-52.1,199.35-104.72,299.45-156.24,84.12-43.29,169.86-83.28,256.17-122.04,90.55-40.67,181.81-79.62,274.42-115.35,123.75-47.75,249.71-88.66,378.13-121.93,59.62-15.44,119.55-29.56,180.25-40.08,40.62-7.04,81.35-13.56,122.19-19.2,25.01-3.45,50.27-5.3,75.48-6.95,29.2-1.91,58.53-1.99,87.68-4.35,31.03-2.52,61.94-.34,92.76,1.29,64.27,3.41,127.79,12.7,189.72,31.05,27.57,8.17,54.38,18.21,78.7,33.78,61.12,39.14,87.19,95.43,82.03,167.33-3.84,53.47-19.38,103.93-38.25,153.54-26.43,69.46-57.41,136.99-87.77,204.77-23.29,51.99-45.49,104.41-63.48,158.53-14.21,42.77-26.24,86.13-30.57,131.04-6.05,62.74.94,123.78,29.05,181.21,17.02,34.77,41.91,63.06,71.86,87.26,40.09,32.4,85.16,55.66,133.05,74.02,46.81,17.95,94.91,31.09,144.55,37.95,21.36,2.95,43.04,4.37,64.61,4.89,28.26.68,56.58.42,84.82-.64,22.45-.85,44.84-3.52,67.39-7.2-5.71-1.42-11.41-2.91-17.14-4.26-86.03-20.14-156.06-65.78-210.56-134.69-65.24-82.49-80.09-174.94-50.96-275.26,27.43-94.47,82.88-169.82,157.87-231.88,63.3-52.39,134.59-90.75,211.13-119.82,57.45-21.82,116.73-36.99,177.04-48.32,47.1-8.85,94.56-15.23,142.29-19.51,16.89-1.52,33.87-2.11,50.82-2.83,33.91-1.45,67.81-2.92,101.73-3.99,48.25-1.53,96.51-2.68,144.76-4.08,4.19-.12,8.37-.9,13.79-1.51-26.93-6.69-52.52-12.35-77.71-19.43-61.14-17.18-119.01-42.8-176.26-69.85-135.79-64.16-262.45-143.27-382.49-233.31-113.08-84.83-222.56-174.18-331.83-263.79-146.38-120.05-292.24-240.73-438.74-360.64-79.44-65.02-160.59-127.91-243.99-187.81-4.58-3.29-9.39-6.38-14.39-8.98-81.71-42.43-167.05-74.91-257.45-93.32-44.06-8.97-88.37-16.16-133.3-19.43-44.62-3.24-89.32-3.73-133.85-.98-126.05,7.8-246.58,37.96-360.04,94.03-76.94,38.03-147.04,86.27-209.78,145-19.04,17.83-36.23,37.33-51.61,58.32-15.52,21.18-24.66,45.65-33.5,70.08-10.57,29.2-16.63,59.57-22.02,90.09-10.59,59.96-19.81,120.22-32.51,179.73-16.8,78.74-34.54,157.35-62.59,233.19-41.63,112.57-100.43,215.36-174.81,309.32-25.64,32.39-52.33,63.96-78.67,95.79-1.97,2.39-4.96,3.93-7.48,5.87,0-12.67,0-25.33,0-38,2.5-1.88,5.49-3.35,7.42-5.7,13.11-15.92,26.14-31.91,38.91-48.1,45.4-57.56,87.07-117.61,121.19-182.67,1.64-3.13,3.07-6.37,4.59-9.56-3.48,1.32-5.85,3.44-8.24,5.53-12.55,10.91-24.78,22.22-37.74,32.62-37,29.69-78.22,52.8-119.64,75.52-1.99,1.09-4.32,1.58-6.49,2.35,0-8,0-16,0-24,3.36-1.17,7.01-1.83,10.03-3.59,18.99-11.07,37.94-22.21,56.7-33.66,47.09-28.74,87.14-65.69,123.6-106.75,11.13-12.54,19.59-26.55,25.72-42.39,20.49-52.89,36.82-106.95,48.77-162.39,9.84-45.65,16.46-91.75,18.62-138.33,2.05-44.28-.24-88.46-7.03-132.4-12.11-78.36-35.36-152.83-73.94-222.41-46.7-84.23-110.4-152.25-191.81-203.65-3.2-2.02-7.09-2.96-10.66-4.41,0-18.67,0-37.33,0-56,7.11,3.54,14.43,6.74,21.31,10.68,85.25,48.78,154.59,114.12,205.88,198.19,1.33,2.19,2.73,4.34,4.09,6.5,1-2.68.79-4.89.28-7.03-16.42-68.66-32.18-137.47-42.63-207.33-5.66-37.85-10.93-75.79-14.97-113.84-3.23-30.43-4.41-61.09-6.36-91.65-2.96-46.38-.21-92.6,5.13-138.64,6.25-53.81,19.56-105.95,38.99-156.59,34.88-90.9,88.44-168.32,164.59-229.55,71.11-57.17,152.19-89.62,243.19-96.23,45.06-3.27,89.75.81,133.94,10.62,62.26,13.84,120.77,37.27,176.45,68.09,6.57,3.64,13.18,7.2,19.78,10.8-.16-2.31-1.03-3.61-2.09-4.74-43.73-46.75-85-95.66-125.2-145.4-55.92-69.19-110.54-139.42-165.78-209.15-10.33-13.04-19.91-26.91-31.71-38.5-25.96-25.49-54.86-47.59-84.89-68.13-70-47.88-143.89-88.97-220.13-125.97-3.47-1.68-6.59-4.09-9.88-6.15,24,0,48,0,72,0,2.57,1.9,4.94,4.17,7.73,5.66,49.34,26.26,97.76,54.09,144.59,84.63,1.74,1.14,3.62,2.06,5.43,3.08.38-.52.77-1.03,1.15-1.55C515.94,61.21,490.97,30.61,466,0c16.67,0,33.33,0,50,0,2.11,2.95,4.09,6.02,6.37,8.84,15.07,18.63,30.44,37.03,45.29,55.84,59.81,75.77,119.46,151.66,179.2,227.48,1.23,1.57,2.83,2.85,4.26,4.26.14-3.59-.68-6.4-1.61-9.17-23.73-70.88-37.65-143.47-37.56-218.41.03-22.95,1.33-45.89,2.05-68.84,11.33,0,22.67,0,34,0ZM463.87,1170.09c.58.53,1.17,1.06,1.75,1.59,2.59-1.42,5.13-2.94,7.78-4.23,16.75-8.16,33.1-17.33,50.37-24.2,79.25-31.52,161.42-46.78,246.95-43.73,50.78,1.81,100.77,8.86,150.27,19.76,81.89,18.02,160.8,45.3,237.88,77.99,118.82,50.4,230.42,114.05,337.18,186.23,59.34,40.12,117.57,81.87,176.15,123.09,9.79,6.89,18.92,14.74,28.21,22.32,9.28,7.59,18.22,15.6,27.59,23.08,34.13,27.22,68.8,53.78,102.52,81.5,155,127.38,309.53,255.33,464.66,382.54,94.83,77.76,189.61,155.62,285.89,231.57,143.01,112.81,298.36,205.37,465.85,277.35,81.19,34.89,165.6,56.44,253.94,61.42,25.58,1.44,51.27,1.58,76.9,1.45,46-.23,91.86-3.11,137.4-9.9,9.19-1.37,18.95-2.08,27.21-5.83,25.59-11.62,49.95-26.12,70.03-45.72,73.24-71.48,138.78-149.32,191.55-237.42,58.58-97.81,93.12-202.97,98.3-317.29,2.06-45.45-.81-90.56-8.9-135.33-13.01-71.99-39.45-138.81-77.52-201.12-28.53-46.7-62.76-88.61-105.39-123.25-42.13-34.24-88.71-61.32-137.71-84.36-56.04-26.35-114.82-44.04-175.41-56.57-73.96-15.29-148.67-22.08-224.03-22.59-26.28-.18-52.58.56-78.86,1.32-17.28.5-34.7.66-51.78,2.96-35.88,4.83-71.55,11.19-107.37,16.48-27.28,4.04-54.63,7.65-82,10.99-20.44,2.5-40.94,4.44-61.44,6.35-40.99,3.81-81.97,7.85-123.01,10.96-23.53,1.78-47.17,2.39-70.78,2.74-52.27.77-104.51-.02-156.64-4.33-22.85-1.89-45.65-4.34-68.48-6.48-14.56-1.37-29.21-2.08-43.68-4.07-39.52-5.41-78.98-11.28-118.44-17.09-48.43-7.13-96.28-17.19-143.58-29.71-91.59-24.26-180.31-56.62-267.08-94.59-76.76-33.59-150.56-72.54-221.08-117.84-60.6-38.93-118.54-81.58-176.68-123.99-41.41-30.2-80.46-63.53-124.68-90.06-48.04-28.82-95.74-57.81-148.6-77.37-57.29-21.2-115.74-35.59-177.29-34.33-6.31.13-12.6,1.1-18.91,1.24-29.38.67-58.31,4.94-86.92,11.31-91.32,20.33-168.95,65.46-235.28,130.75-51.13,50.33-90.78,108.87-122.32,173.04-8.63,17.56-16.36,35.57-24.5,53.37ZM1297.61,3362.85c.66.37,1.32.74,1.98,1.1,1.45-3.33,2.98-6.63,4.33-10,26.98-67.57,57.51-133.42,97.19-194.59,21.03-32.42,42.8-64.39,65.4-95.73,14-19.41,29.44-37.93,45.52-55.68,38.19-42.15,81.7-78.5,127.52-111.97,59.2-43.24,119.17-85.42,178.55-128.41,47.25-34.2,93.81-69.15,135.02-110.91,29.88-30.28,57.64-61.96,79.58-98.47,16.88-28.09,31.44-57.19,38.36-89.6,6.18-28.94,8.98-57.99,2.94-87.25-1.6-7.73-4-15.53-7.5-22.58-13.36-26.89-33.69-47.7-58.33-64.54-30-20.49-62.72-34.96-97.58-44.95-42.02-12.04-84.49-21.97-128.15-25.27-27.56-2.09-55.25-2.73-82.9-3.51-15.31-.43-30.7-.54-45.97.48-37.88,2.52-75.74,5.59-113.57,8.79-50.49,4.27-100.48,12.23-150.3,21.29-78.03,14.2-154.93,33.22-231.49,53.83-99.47,26.78-196.68,60.39-293.21,96.07-66.88,24.72-131.79,54.22-197.4,82.06-35.98,15.27-68.32,35.91-99.2,59.29-40.31,30.52-75.63,66.4-109.31,103.85-66.58,74.02-121.43,156.06-165.39,245.41-51.14,103.96-79.02,213.91-85.18,329.44-2.2,41.3-1.32,82.61,1.8,123.86.41,5.42,1.36,10.8,2.14,16.84.81-1,1.15-1.24,1.2-1.52,1.38-8.89,2.74-17.78,4.09-26.67,12.69-83.88,36.16-164.57,73.65-240.76,61.62-125.22,149.6-228.77,261.01-312.4,97.13-72.91,204.15-126.73,320.42-161.67,78.11-23.47,157.85-36.57,239.86-33.2,22.67.93,45.18,2.69,67.49,6.53,48.09,8.29,93.71,23.39,134.32,51.18,54.44,37.25,89.42,87.78,102.08,152.94,6.27,32.26,5.72,64.84,4.13,97.54-2.26,46.48-10.67,91.85-21.89,136.85-17.89,71.79-41.06,141.99-63.63,212.37-12.8,39.9-25.09,79.96-37.61,119.95ZM2046.33,2601.51c-.55-.23-1.11-.45-1.66-.68-7.08,9.63-13.68,19.67-21.33,28.83-39.44,47.23-82.95,90.4-132.36,127.12-50.81,37.76-102.43,74.43-153.85,111.36-48.72,34.99-97.66,69.69-143.42,108.59-53.77,45.7-100.15,97.7-134.87,159.45-28.94,51.47-51.9,105.18-57.66,164.74-1.21,12.53-.9,25.31-.12,37.9.53,8.53,3.1,16.93,4.77,25.39,1.73,8.8,3.34,17.64,5.24,26.41,3.52,16.26,13.07,29.75,20.55,44.2,14.9,28.78,35.27,53.23,58.82,75.2,48.59,45.34,105.67,76.08,168.01,97.83,71.41,24.91,145.49,34.74,220.54,37.56,52.87,1.99,105.83.99,158.52-5.05,30.38-3.48,60.86-6.41,91.08-11.04,49.99-7.66,99.38-18.49,148.45-30.82,89.45-22.47,177.83-48.6,265.38-77.58,71.43-23.65,142.35-48.75,212.3-76.5,3.58-1.42,7.06-3.1,10.59-4.65-33.9,5.64-67.41,12.46-101.1,18.3-46.5,8.07-93.01,16.15-140.08,20.33-42.02,3.73-83.97,8.79-126.07,10.83-32.18,1.55-64.63.48-96.82-1.54-48.96-3.08-96.89-13.11-144.01-26.59-60.59-17.33-118.09-41.38-169.25-79.08-32.81-24.18-61.46-52.05-81.91-87.75-23.33-40.74-34.29-85.01-37.57-131.41-3.92-55.46,3.89-109.68,18.56-163.04,17.52-63.73,41.87-124.98,68.02-185.55,29.17-67.56,58.33-135.14,87.46-202.72,1.41-3.27,2.52-6.68,3.77-10.02ZM1132.76,793.87c.23-.54.46-1.07.69-1.61-1.47-1.31-2.88-2.69-4.41-3.92-49.15-39.4-98.84-78.07-151.18-113.19-52.96-35.54-108.13-67-167.71-90.25-64.98-25.36-131.73-39.42-202.02-33.36-49.7,4.28-97.13,16.39-141.51,39.1-87.15,44.59-151.58,112.05-196.43,198.48-40.65,78.33-58.03,162.67-61.86,250.13-2.04,46.64-1.34,93.35,3.47,139.82,4.94,47.69,10.02,95.42,16.97,142.85,12.07,82.41,29.87,163.76,48.25,244.97,17.73,78.3,34.43,156.77,41.58,236.92.75,8.42,1.58,16.83,2.37,25.25,1.9-1.58,2.65-3.31,2.83-5.1,4.18-40.42,8.38-80.85,12.37-121.29.91-9.24.76-18.58,1.61-27.83,1.09-11.92,3.05-23.77,4-35.71,5.59-70.07,10.47-140.21,20.01-209.91,10.13-74.05,25.41-146.88,50.4-217.51,18.04-50.98,39.04-100.59,65.6-147.75,43.52-77.25,98.48-144.69,169.4-198.62,85.27-64.84,181.62-99.31,288.29-104.68,24.52-1.23,49.4-.48,73.79,2.25,39.8,4.45,78.44,14.85,116.17,28.42,2.43.87,4.88,1.71,7.32,2.57ZM1424.95,1376.19c.28-.53.56-1.05.84-1.58-2.9-1.93-5.76-3.92-8.71-5.77-62.74-39.29-127.05-75.79-193.85-107.73-123.59-59.09-251.34-104.83-388.53-120.04-31.56-3.5-63.18-4.52-94.8-2.51-42.32,2.69-83.94,10.07-124.83,21.42-46.46,12.89-91.08,30.05-131.5,56.86-17.85,11.84-34.67,24.96-47.27,42.59-2.83,3.96-5.09,8.63-6.41,13.31-18.61,65.87-29.9,133.15-37.72,201.04-4.11,35.72-7.83,71.48-11.63,107.23-.77,7.25-1.13,14.54-1.85,24.16,4.14-4.61,6.66-7.2,8.94-9.98,16.15-19.63,34.68-36.88,53.76-53.56,59.04-51.61,124.33-93.85,194.04-129.51,52.41-26.81,107.45-46.54,164.06-62.26,53.35-14.82,107.31-26.86,162.58-31.07,50.81-3.87,101.72-5.88,152.77-3.4,36.3,1.76,72.38,4.67,108.31,10.19,66.32,10.2,131.23,25.93,194.45,48.49,2.4.86,4.9,1.41,7.36,2.11Z"/><path d="M1320,0c19.56,43.29,42.84,84.33,73.11,121.15,46.13,56.13,103.34,97.69,168.7,128.62,44.57,21.1,91.79,33.63,139.69,44.18,35.49,7.81,71.2,14.22,107.52,15.94,26.26,1.24,52.62,2.39,78.87,1.54,92.69-2.99,182.82-20.22,271.31-48.07,93.36-29.38,180.77-71.29,265.05-120.31,70.39-40.94,137.03-87.47,201.74-136.8,2.27-1.73,4.01-4.16,6-6.26,13.33,0,26.67,0,40,0-1.85,1.86-3.53,3.94-5.57,5.55-109.8,86.3-225.82,162.88-351.74,223.82-95.51,46.23-195.55,78.97-299.8,98.76-35.31,6.7-70.86,11.41-106.71,14.45-33.9,2.88-67.84,4.21-101.74,2.79-30.86-1.29-61.69-4.41-92.41-7.84-50.44-5.64-99.76-16.69-147.75-33.35-67.87-23.56-129.2-58.07-181.48-107.93-38.54-36.74-68.89-79.45-92.86-126.75-9.77-19.28-18.05-39.31-26.85-59.07-1.46-3.28-2.08-6.94-3.08-10.42,19.33,0,38.67,0,58,0Z"/><path d="M304,4000c-3.02-1.87-5.9-4.03-9.08-5.55-67.12-31.93-136.75-57.56-206.79-82.15-25.74-9.04-51.64-17.6-77.52-26.24-3.39-1.13-7.07-1.4-10.61-2.06,0-12,0-24,0-36,76.54,25.25,152.7,51.56,227.43,81.83,47.88,19.4,94.59,41.41,140.67,64.73,2.83,1.43,5.27,3.61,7.9,5.44h-72Z"/></svg>