<svg xmlns="http://www.w3.org/2000/svg" xmlns:xlink="http://www.w3.org/1999/xlink" width="1080" zoomAndPan="magnify" viewBox="0 0 810 809.999993" height="1080" preserveAspectRatio="xMidYMid meet" version="1.0"><rect x="-81" width="972" fill="#ffffff" y="-80.999999" height="971.999992" fill-opacity="1"/><rect x="-81" width="972" fill="#ffffff" y="-80.999999" height="971.999992" fill-opacity="1"/><path fill="#ff3131" d="M 128.292969 123.152344 C 129.292969 122.40625 130.34375 121.738281 131.441406 121.144531 C 132.542969 120.554688 133.679688 120.046875 134.855469 119.625 C 136.027344 119.199219 137.230469 118.863281 138.453125 118.621094 C 139.675781 118.375 140.914062 118.21875 142.160156 118.15625 C 143.40625 118.09375 144.652344 118.121094 145.894531 118.242188 C 147.136719 118.363281 148.363281 118.578125 149.578125 118.878906 C 150.789062 119.183594 151.96875 119.574219 153.125 120.050781 C 154.277344 120.527344 155.390625 121.089844 156.460938 121.730469 L 240.835938 172.355469 C 241.769531 172.917969 242.664062 173.535156 243.515625 174.210938 C 244.371094 174.882812 245.175781 175.613281 245.9375 176.390625 C 246.695312 177.171875 247.402344 177.996094 248.054688 178.863281 C 248.707031 179.734375 249.304688 180.644531 249.839844 181.589844 C 250.375 182.539062 250.847656 183.515625 251.257812 184.523438 C 251.667969 185.53125 252.011719 186.5625 252.289062 187.613281 C 252.566406 188.667969 252.777344 189.730469 252.914062 190.8125 C 253.054688 191.890625 253.125 192.972656 253.125 194.0625 L 253.125 615.9375 C 253.125 617.027344 253.054688 618.109375 252.914062 619.1875 C 252.777344 620.269531 252.566406 621.332031 252.289062 622.386719 C 252.011719 623.4375 251.667969 624.46875 251.257812 625.476562 C 250.847656 626.484375 250.375 627.460938 249.839844 628.410156 C 249.304688 629.355469 248.707031 630.265625 248.054688 631.136719 C 247.402344 632.003906 246.695312 632.828125 245.9375 633.609375 C 245.175781 634.386719 244.371094 635.117188 243.515625 635.789062 C 242.664062 636.464844 241.769531 637.082031 240.835938 637.644531 L 156.460938 688.269531 C 155.390625 688.910156 154.277344 689.46875 153.125 689.949219 C 151.96875 690.425781 150.789062 690.816406 149.574219 691.117188 C 148.363281 691.421875 147.136719 691.632812 145.894531 691.753906 C 144.652344 691.875 143.40625 691.90625 142.160156 691.84375 C 140.914062 691.777344 139.675781 691.625 138.453125 691.378906 C 137.226562 691.132812 136.027344 690.796875 134.855469 690.375 C 133.679688 689.949219 132.542969 689.441406 131.441406 688.851562 C 130.34375 688.257812 129.292969 687.589844 128.292969 686.84375 L 77.667969 649.039062 C 76.089844 647.859375 74.667969 646.515625 73.402344 645.007812 C 72.140625 643.496094 71.066406 641.863281 70.183594 640.101562 C 69.300781 638.339844 68.632812 636.503906 68.179688 634.585938 C 67.726562 632.671875 67.5 630.726562 67.5 628.757812 L 67.5 181.242188 C 67.5 179.273438 67.726562 177.328125 68.179688 175.414062 C 68.632812 173.496094 69.300781 171.660156 70.183594 169.898438 C 71.066406 168.140625 72.140625 166.503906 73.40625 164.996094 C 74.667969 163.484375 76.089844 162.140625 77.667969 160.960938 Z M 144.976562 173.878906 L 118.125 193.933594 L 118.125 616.0625 L 144.976562 636.117188 L 202.5 601.605469 L 202.5 208.394531 Z M 510.28125 222.660156 C 511.253906 223.210938 512.183594 223.820312 513.074219 224.492188 C 513.960938 225.164062 514.804688 225.894531 515.597656 226.675781 C 516.390625 227.460938 517.128906 228.292969 517.8125 229.171875 C 518.496094 230.054688 519.117188 230.976562 519.679688 231.941406 C 520.242188 232.902344 520.738281 233.898438 521.167969 234.925781 C 521.597656 235.957031 521.957031 237.007812 522.25 238.085938 C 522.539062 239.160156 522.757812 240.253906 522.90625 241.355469 C 523.050781 242.460938 523.125 243.574219 523.125 244.6875 L 523.125 480.9375 C 523.125 482.027344 523.054688 483.109375 522.914062 484.1875 C 522.777344 485.269531 522.566406 486.332031 522.289062 487.386719 C 522.011719 488.4375 521.667969 489.46875 521.257812 490.476562 C 520.847656 491.484375 520.375 492.460938 519.839844 493.410156 C 519.304688 494.355469 518.707031 495.265625 518.054688 496.136719 C 517.402344 497.003906 516.695312 497.828125 515.9375 498.609375 C 515.175781 499.386719 514.371094 500.113281 513.515625 500.789062 C 512.664062 501.464844 511.769531 502.082031 510.835938 502.644531 L 418.023438 558.332031 C 417.042969 558.917969 416.03125 559.4375 414.980469 559.886719 C 413.933594 560.335938 412.855469 560.714844 411.757812 561.019531 C 410.65625 561.324219 409.539062 561.554688 408.410156 561.707031 C 407.277344 561.859375 406.140625 561.9375 405 561.9375 C 403.859375 561.9375 402.722656 561.859375 401.589844 561.707031 C 400.460938 561.554688 399.34375 561.324219 398.242188 561.019531 C 397.144531 560.714844 396.066406 560.335938 395.019531 559.886719 C 393.96875 559.4375 392.957031 558.917969 391.976562 558.332031 L 299.164062 502.644531 C 298.230469 502.082031 297.335938 501.464844 296.484375 500.789062 C 295.628906 500.117188 294.824219 499.386719 294.0625 498.609375 C 293.304688 497.828125 292.597656 497.003906 291.945312 496.136719 C 291.292969 495.265625 290.695312 494.355469 290.160156 493.410156 C 289.625 492.460938 289.152344 491.484375 288.742188 490.476562 C 288.332031 489.46875 287.988281 488.4375 287.710938 487.386719 C 287.433594 486.332031 287.222656 485.269531 287.085938 484.1875 C 286.945312 483.109375 286.875 482.027344 286.875 480.9375 L 286.875 244.6875 C 286.875 243.574219 286.949219 242.460938 287.09375 241.355469 C 287.242188 240.25 287.460938 239.160156 287.75 238.085938 C 288.042969 237.007812 288.402344 235.957031 288.832031 234.925781 C 289.261719 233.898438 289.757812 232.902344 290.320312 231.9375 C 290.882812 230.976562 291.503906 230.054688 292.1875 229.171875 C 292.871094 228.292969 293.609375 227.460938 294.402344 226.675781 C 295.195312 225.894531 296.035156 225.164062 296.925781 224.492188 C 297.816406 223.820312 298.746094 223.210938 299.714844 222.660156 C 300.6875 222.109375 301.6875 221.628906 302.722656 221.210938 C 303.757812 220.792969 304.8125 220.445312 305.894531 220.167969 C 306.972656 219.890625 308.066406 219.6875 309.175781 219.554688 C 310.28125 219.421875 311.390625 219.363281 312.507812 219.375 C 313.621094 219.390625 314.730469 219.476562 315.835938 219.640625 C 316.9375 219.800781 318.027344 220.03125 319.097656 220.335938 C 320.171875 220.640625 321.21875 221.015625 322.242188 221.457031 C 323.265625 221.898438 324.253906 222.410156 325.210938 222.980469 L 405 270.855469 L 484.789062 222.980469 C 485.746094 222.410156 486.734375 221.898438 487.757812 221.457031 C 488.78125 221.015625 489.828125 220.640625 490.902344 220.335938 C 491.972656 220.03125 493.0625 219.800781 494.164062 219.640625 C 495.269531 219.480469 496.378906 219.390625 497.492188 219.378906 C 498.609375 219.363281 499.71875 219.421875 500.824219 219.554688 C 501.933594 219.6875 503.027344 219.894531 504.105469 220.171875 C 505.1875 220.449219 506.242188 220.796875 507.277344 221.210938 C 508.3125 221.628906 509.3125 222.113281 510.28125 222.660156 Z M 472.5 289.394531 L 418.023438 322.082031 C 417.042969 322.667969 416.03125 323.1875 414.980469 323.636719 C 413.933594 324.085938 412.855469 324.464844 411.757812 324.769531 C 410.65625 325.074219 409.539062 325.304688 408.410156 325.457031 C 407.277344 325.609375 406.140625 325.6875 405 325.6875 C 403.859375 325.6875 402.722656 325.609375 401.589844 325.457031 C 400.460938 325.304688 399.34375 325.074219 398.242188 324.769531 C 397.144531 324.464844 396.066406 324.085938 395.019531 323.636719 C 393.96875 323.1875 392.957031 322.667969 391.976562 322.082031 L 337.5 289.394531 L 337.5 466.605469 L 405 507.105469 L 472.5 466.605469 Z M 653.539062 121.730469 C 654.609375 121.089844 655.722656 120.527344 656.875 120.050781 C 658.03125 119.574219 659.210938 119.183594 660.421875 118.878906 C 661.636719 118.578125 662.863281 118.363281 664.105469 118.242188 C 665.347656 118.121094 666.59375 118.09375 667.839844 118.15625 C 669.085938 118.21875 670.324219 118.375 671.546875 118.621094 C 672.769531 118.863281 673.972656 119.199219 675.144531 119.625 C 676.320312 120.046875 677.457031 120.554688 678.558594 121.144531 C 679.65625 121.738281 680.707031 122.40625 681.707031 123.152344 L 732.332031 160.960938 C 733.910156 162.140625 735.332031 163.484375 736.59375 164.992188 C 737.859375 166.503906 738.933594 168.136719 739.8125 169.898438 C 740.695312 171.65625 741.363281 173.496094 741.820312 175.410156 C 742.273438 177.328125 742.5 179.269531 742.5 181.238281 L 742.5 628.761719 C 742.5 630.730469 742.273438 632.675781 741.820312 634.589844 C 741.367188 636.507812 740.699219 638.34375 739.816406 640.105469 C 738.933594 641.867188 737.859375 643.5 736.597656 645.011719 C 735.332031 646.519531 733.910156 647.863281 732.332031 649.042969 L 681.707031 686.847656 C 680.707031 687.59375 679.65625 688.261719 678.558594 688.855469 C 677.457031 689.445312 676.320312 689.953125 675.144531 690.378906 C 673.972656 690.800781 672.773438 691.136719 671.546875 691.382812 C 670.324219 691.628906 669.085938 691.78125 667.839844 691.847656 C 666.59375 691.910156 665.347656 691.878906 664.105469 691.757812 C 662.863281 691.636719 661.636719 691.425781 660.425781 691.125 C 659.210938 690.820312 658.03125 690.429688 656.875 689.953125 C 655.722656 689.476562 654.609375 688.914062 653.539062 688.273438 L 569.164062 637.648438 C 568.230469 637.085938 567.335938 636.46875 566.484375 635.792969 C 565.628906 635.117188 564.824219 634.390625 564.0625 633.613281 C 563.304688 632.832031 562.597656 632.007812 561.945312 631.136719 C 561.289062 630.265625 560.695312 629.359375 560.160156 628.410156 C 559.625 627.464844 559.148438 626.488281 558.738281 625.476562 C 558.328125 624.46875 557.988281 623.441406 557.710938 622.386719 C 557.433594 621.335938 557.222656 620.269531 557.085938 619.1875 C 556.945312 618.109375 556.875 617.027344 556.875 615.9375 L 556.875 194.0625 C 556.875 192.972656 556.945312 191.890625 557.085938 190.8125 C 557.222656 189.730469 557.433594 188.667969 557.710938 187.613281 C 557.988281 186.5625 558.332031 185.53125 558.742188 184.523438 C 559.152344 183.515625 559.625 182.539062 560.160156 181.589844 C 560.695312 180.644531 561.292969 179.734375 561.945312 178.863281 C 562.597656 177.996094 563.304688 177.171875 564.0625 176.390625 C 564.824219 175.613281 565.628906 174.882812 566.484375 174.210938 C 567.335938 173.535156 568.230469 172.917969 569.164062 172.355469 Z M 691.875 193.933594 L 665.023438 173.878906 L 607.5 208.394531 L 607.5 601.605469 L 665.023438 636.121094 L 691.875 616.066406 Z M 691.875 193.933594 " fill-opacity="1" fill-rule="evenodd"/></svg>