<svg xmlns="http://www.w3.org/2000/svg" xmlns:xlink="http://www.w3.org/1999/xlink" width="1080" zoomAndPan="magnify" viewBox="0 0 810 809.999993" height="1080" preserveAspectRatio="xMidYMid meet" version="1.0"><rect x="-81" width="972" fill="#ffffff" y="-80.999999" height="971.999992" fill-opacity="1"/><rect x="-81" width="972" fill="#ffffff" y="-80.999999" height="971.999992" fill-opacity="1"/><path fill="#ff3131" d="M 782.359375 28.753906 C 779.523438 28.753906 779.523438 20.25 777.296875 18.628906 C 768.300781 15.542969 759.054688 14.191406 749.554688 14.578125 L 743.480469 20.65625 L 727.277344 20.65625 C 721.449219 17.078125 715.238281 14.378906 708.648438 12.554688 C 706.015625 12.554688 700.953125 16.605469 700.953125 16.605469 C 700.953125 16.605469 671.589844 16.605469 661.871094 16.605469 C 647.597656 12.847656 633.085938 10.753906 618.332031 10.328125 L 534.5 8.707031 C 534.5 8.707031 524.980469 8.707031 523.765625 9.921875 C 522.550781 11.136719 528.421875 17.414062 528.222656 20.25 C 528.222656 27.742188 523.160156 31.589844 521.945312 37.261719 C 493.59375 37.261719 489.949219 42.324219 489.949219 42.324219 L 487.113281 27.742188 L 472.128906 14.78125 L 458.5625 4.65625 L 424.339844 4.65625 C 420.851562 2.5625 417.140625 1.007812 413.203125 0 C 409.492188 0.921875 405.980469 2.339844 402.671875 4.253906 L 382.421875 4.253906 C 375.765625 2.046875 368.949219 0.632812 361.96875 0 C 349.738281 0.863281 337.726562 2.957031 325.921875 6.277344 L 311.546875 20.25 C 311.546875 20.25 301.015625 20.25 297.980469 23.691406 C 296.339844 26.148438 295.394531 28.847656 295.144531 31.792969 L 224.269531 28.753906 C 219.019531 24.125 213.28125 20.210938 207.054688 17.011719 C 202.804688 17.011719 202.398438 23.289062 202.398438 23.289062 L 132.535156 20.25 C 129.480469 19.34375 126.375 18.667969 123.222656 18.226562 L 117.550781 18.226562 L 75.027344 15.996094 C 75.027344 15.996094 70.773438 11.339844 68.75 12.351562 L 61.660156 16.199219 L 46.675781 22.679688 C 37.28125 21.949219 28.101562 20.125 19.136719 17.210938 C 16.503906 15.996094 13.464844 19.035156 13.464844 19.035156 C 13.464844 19.035156 6.785156 22.679688 6.785156 28.148438 C 6.785156 39.890625 6.785156 53.664062 6.785156 62.167969 C 6.785156 70.671875 15.492188 67.636719 15.492188 67.636719 C 15.492188 67.636719 7.796875 182.25 4.554688 222.75 C 5.988281 247.960938 9.226562 272.933594 14.277344 297.675781 C 14.277344 304.359375 22.578125 316.710938 22.375 323.59375 C 22.171875 330.480469 14.277344 335.542969 14.277344 340.199219 C 14.277344 344.859375 14.277344 350.527344 14.277344 359.4375 C 14.277344 368.347656 30.476562 384.75 30.476562 384.75 C 31.097656 394.199219 31.097656 403.648438 30.476562 413.101562 C 27.035156 411.074219 21.769531 405.609375 18.328125 407.023438 C 14.882812 408.441406 18.328125 419.578125 18.328125 419.578125 L 14.074219 422.210938 L 10.632812 506.25 L 12.859375 519.007812 L 31.082031 525.488281 L 29.261719 606.488281 L 15.085938 610.941406 L 11.035156 627.140625 L 11.035156 687.890625 C 11.035156 687.890625 11.035156 726.164062 13.667969 740.542969 C 13.667969 746.414062 8 757.148438 8 762.613281 C 8 765.042969 8 770.714844 11.238281 770.714844 C 18.125 770.714844 29.464844 769.5 29.464844 769.5 C 29.464844 769.5 27.4375 782.863281 31.082031 782.863281 L 53.964844 782.863281 C 53.964844 782.863281 66.925781 780.230469 71.179688 780.03125 C 75.429688 779.828125 82.921875 780.03125 82.921875 780.03125 L 85.554688 778.816406 C 85.554688 778.816406 115.324219 778.816406 124.03125 777.800781 C 126.664062 784.078125 134.15625 777.800781 149.75 777.800781 C 151.570312 773.753906 154.203125 774.5625 155.015625 774.96875 C 155.015625 785.296875 158.253906 783.472656 158.253906 783.472656 L 180.933594 778.816406 C 180.933594 778.816406 180.933594 781.648438 194.097656 780.433594 C 197.132812 780.433594 208.878906 784.28125 214.347656 778.613281 C 217.171875 779.714844 219.871094 781.066406 222.445312 782.664062 C 224.625 780.9375 226.988281 779.519531 229.535156 778.410156 C 231.558594 778.410156 235.8125 780.433594 237.835938 780.433594 C 260.71875 780.433594 258.085938 774.5625 262.742188 775.777344 C 263.457031 776.800781 264.273438 777.734375 265.195312 778.574219 C 266.121094 779.414062 267.125 780.140625 268.210938 780.753906 C 269.296875 781.367188 270.441406 781.851562 271.636719 782.210938 C 272.832031 782.566406 274.054688 782.785156 275.296875 782.863281 C 287.042969 784.078125 306.484375 786.308594 310.9375 786.105469 C 315.164062 784.800781 319.011719 782.777344 322.480469 780.03125 C 330.582031 785.296875 336.453125 806.960938 343.742188 810.40625 C 350.652344 810.179688 357.402344 809.035156 363.992188 806.960938 C 363.992188 802.710938 363.992188 798.660156 368.449219 798.457031 C 372.902344 798.253906 371.6875 805.546875 373.917969 806.355469 C 394.167969 807.976562 395.382812 801.089844 395.382812 801.089844 L 405.507812 804.734375 C 408.851562 802.902344 412.425781 801.957031 416.238281 801.898438 C 416.421875 802.4375 416.730469 802.890625 417.167969 803.253906 C 417.605469 803.617188 418.105469 803.839844 418.667969 803.925781 C 423.648438 804.9375 428.675781 805.441406 433.753906 805.441406 C 438.835938 805.441406 443.863281 804.9375 448.839844 803.925781 C 449.527344 803.609375 450.164062 803.210938 450.753906 802.742188 C 451.339844 802.269531 451.863281 801.730469 452.324219 801.132812 C 452.78125 800.53125 453.160156 799.886719 453.464844 799.195312 C 453.765625 798.503906 453.980469 797.785156 454.105469 797.039062 C 469.96875 795.550781 485.832031 795.550781 501.695312 797.039062 C 501.695312 805.949219 513.035156 804.53125 524.777344 802.710938 C 547.914062 795.183594 571.605469 790.460938 595.855469 788.535156 L 610.03125 778.207031 C 613.574219 781.140625 617.285156 783.839844 621.167969 786.308594 C 635.546875 787.726562 641.417969 791.167969 652.757812 785.296875 C 659.238281 792.988281 675.035156 794.40625 701.15625 794.40625 C 704.390625 794.125 707.523438 793.398438 710.554688 792.226562 C 713.582031 791.054688 716.390625 789.488281 718.976562 787.523438 C 723.835938 788.738281 731.9375 784.890625 732.542969 782.054688 L 744.289062 779.21875 C 743.933594 778.15625 743.339844 777.246094 742.511719 776.488281 C 741.683594 775.734375 740.722656 775.226562 739.632812 774.96875 C 732.929688 773.789062 726.179688 773.382812 719.382812 773.753906 C 722.621094 769.5 728.292969 768.691406 748.742188 769.09375 L 801.394531 787.320312 C 805.242188 788.738281 805.445312 775.371094 805.445312 771.121094 L 805.445312 718.066406 C 806.355469 708.546875 806.355469 699.03125 805.445312 689.511719 L 805.445312 461.496094 C 805.445312 461.496094 796.734375 458.257812 795.320312 455.625 C 794.25 453.261719 793.378906 450.824219 792.707031 448.320312 C 792.035156 445.8125 791.566406 443.269531 791.308594 440.6875 C 791.050781 438.105469 791.003906 435.519531 791.167969 432.929688 C 791.328125 430.339844 791.703125 427.78125 792.28125 425.25 C 792.980469 420.929688 792.980469 416.609375 792.28125 412.289062 C 791.890625 402.789062 792.769531 393.40625 794.914062 384.140625 C 791.886719 381.882812 789.320312 379.183594 787.21875 376.042969 C 784.992188 370.371094 787.21875 360.855469 785.597656 355.792969 C 784.667969 353.0625 783.046875 350.835938 780.738281 349.109375 C 779.652344 348.195312 778.628906 347.214844 777.671875 346.167969 C 776.714844 345.117188 775.828125 344.007812 775.019531 342.84375 C 774.207031 341.679688 773.476562 340.464844 772.828125 339.199219 C 772.175781 337.9375 771.613281 336.636719 771.132812 335.300781 C 770.65625 333.964844 770.265625 332.601562 769.96875 331.210938 C 769.671875 329.824219 769.464844 328.421875 769.355469 327.003906 C 769.242188 325.589844 769.222656 324.171875 769.296875 322.753906 C 769.375 321.335938 769.542969 319.929688 769.804688 318.53125 L 782.359375 302.941406 C 778.890625 296.621094 776.867188 289.871094 776.285156 282.691406 C 796.535156 285.726562 797.75 277.628906 797.75 277.628906 L 803.824219 146.609375 L 795.722656 83.023438 C 795.722656 83.023438 803.417969 74.722656 802.8125 71.683594 C 801.566406 60.710938 801.230469 49.707031 801.796875 38.675781 C 799.226562 35.957031 796.269531 33.742188 792.933594 32.042969 C 789.597656 30.339844 786.074219 29.242188 782.359375 28.753906 Z M 95.277344 163.011719 C 95.277344 163.011719 95.277344 157.949219 97.300781 156.9375 C 99.328125 155.925781 137.800781 143.773438 137.800781 143.773438 L 162.507812 141.75 C 162.507812 141.75 221.433594 183.261719 239.859375 194.199219 C 240.121094 197.046875 240.78125 199.800781 241.851562 202.457031 C 242.921875 205.109375 244.351562 207.554688 246.140625 209.789062 L 275.703125 222.140625 C 275.703125 226.597656 295.953125 231.863281 295.953125 231.863281 L 618.332031 450.5625 C 618.332031 450.5625 616.308594 452.992188 616.511719 454.003906 C 616.511719 459.066406 629.269531 466.558594 629.269531 466.558594 L 646.078125 468.585938 L 710.066406 513.945312 L 705.003906 551.203125 L 687.792969 605.476562 L 659.644531 662.984375 L 578.644531 662.984375 L 562.445312 655.289062 L 458.5625 544.726562 C 458.5625 544.726562 456.535156 533.386719 454.105469 531.96875 C 448.25 527.609375 442.917969 522.679688 438.109375 517.183594 L 427.171875 512.121094 C 425.449219 506.285156 423.289062 500.617188 420.695312 495.113281 C 418.730469 491.800781 416.394531 488.773438 413.6875 486.03125 C 410.980469 483.292969 407.984375 480.917969 404.695312 478.914062 C 401.660156 478.367188 398.621094 478.367188 395.582031 478.914062 C 390.324219 470.421875 384.519531 462.320312 378.167969 454.613281 C 376.953125 453.398438 371.484375 454.613281 371.484375 454.613281 L 309.519531 390.21875 C 306.453125 383.777344 302.875 377.636719 298.789062 371.789062 C 298.148438 371.1875 297.445312 370.667969 296.683594 370.230469 C 295.917969 369.792969 295.113281 369.449219 294.269531 369.203125 C 293.425781 368.957031 292.5625 368.8125 291.683594 368.769531 C 290.804688 368.730469 289.933594 368.789062 289.070312 368.953125 Z M 481.644531 178.402344 L 481.644531 175.363281 L 589.78125 148.027344 L 605.171875 146.40625 L 650.9375 174.554688 L 653.972656 194.804688 L 637.773438 286.738281 L 628.457031 291.601562 L 608.207031 274.589844 L 601.527344 272.96875 L 480.027344 178.199219 Z M 159.265625 488.226562 L 309.519531 636.253906 L 308.105469 641.316406 L 205.03125 673.109375 L 180.730469 668.25 L 173.035156 670.273438 L 108.4375 621.066406 L 108.4375 607.5 Z M 159.265625 488.226562 " fill-opacity="1" fill-rule="nonzero"/></svg>