<svg xmlns="http://www.w3.org/2000/svg" viewBox="0 0 39.55 40"><g id="Layer_2" data-name="Layer 2"><g id="used"><path d="M38.41,1.42c-.14,0-.14-.42-.25-.5a3.75,3.75,0,0,0-1.37-.2l-.3.3h-.8a3.59,3.59,0,0,0-.92-.4c-.13,0-.38.2-.38.2s-1.45,0-1.93,0A9.52,9.52,0,0,0,30.31.51L26.17.43s-.47,0-.53.06.23.37.22.51c0,.37-.25.56-.31.84-1.4,0-1.58.25-1.58.25l-.14-.72L23.09.73l-.67-.5-1.69,0A2.06,2.06,0,0,0,20.18,0a2,2,0,0,0-.52.21l-1,0A4.5,4.5,0,0,0,17.65,0a8.89,8.89,0,0,0-1.78.31L15.16,1s-.52,0-.67.17a.85.85,0,0,0-.14.4l-3.5-.15A4.17,4.17,0,0,0,10,.84c-.21,0-.23.31-.23.31L6.32,1a3.16,3.16,0,0,0-.46-.1H5.58L3.48.79S3.27.56,3.17.61L2.82.8l-.74.32A5.88,5.88,0,0,1,.72.85C.59.79.44.94.44.94s-.33.18-.33.45c0,.58,0,1.26,0,1.68s.43.27.43.27S.16,9,0,11A25.82,25.82,0,0,0,.48,14.7c0,.33.41.94.4,1.28s-.4.59-.4.82,0,.51,0,.95.8,1.25.8,1.25a10.69,10.69,0,0,1,0,1.4c-.17-.1-.43-.37-.6-.3s0,.62,0,.62l-.21.13L.3,25l.11.63.9.32-.09,4-.7.22-.2.8v3s0,1.89.13,2.6c0,.29-.28.82-.28,1.09,0,.12,0,.4.16.4.34,0,.9-.06.9-.06s-.1.66.08.66l1.13,0s.64-.13.85-.14.58,0,.58,0L4,38.46s1.47,0,1.9-.05c.13.31.5,0,1.27,0,.09-.2.22-.16.26-.14,0,.51.16.42.16.42l1.12-.23s0,.14.65.08c.15,0,.73.19,1-.09a2.45,2.45,0,0,1,.4.2,1.58,1.58,0,0,1,.35-.21c.1,0,.31.1.41.1,1.13,0,1-.29,1.23-.23a.82.82,0,0,0,.62.35c.58.06,1.54.17,1.76.16a1.75,1.75,0,0,0,.57-.3c.4.26.69,1.33,1.05,1.5a3.74,3.74,0,0,0,1-.17c0-.21,0-.41.22-.42s.16.35.27.39c1,.08,1.06-.26,1.06-.26l.5.18a1.14,1.14,0,0,1,.53-.14.15.15,0,0,0,.12.1,3.74,3.74,0,0,0,1.49,0,.46.46,0,0,0,.26-.34,12.57,12.57,0,0,1,2.35,0c0,.44.56.37,1.14.28a15.25,15.25,0,0,1,3.51-.7l.7-.51a5.42,5.42,0,0,0,.55.4c.71.07,1,.24,1.56-.05.32.38,1.1.45,2.39.45a1.7,1.7,0,0,0,.88-.34c.24.06.64-.13.67-.27l.58-.14a.32.32,0,0,0-.23-.21,4.39,4.39,0,0,0-1-.06c.16-.21.44-.25,1.45-.23l2.6.9c.19.07.2-.59.2-.8V35.46a7.38,7.38,0,0,0,0-1.41V22.79s-.43-.16-.5-.29A2.36,2.36,0,0,1,38.9,21a2,2,0,0,0,0-.64,5.21,5.21,0,0,1,.13-1.39,1.63,1.63,0,0,1-.38-.4c-.11-.28,0-.75-.08-1a.69.69,0,0,0-.24-.33,1.59,1.59,0,0,1-.54-1.51l.62-.77a2.5,2.5,0,0,1-.3-1c1,.15,1.06-.25,1.06-.25l.3-6.47-.4-3.14s.38-.41.35-.56a9.92,9.92,0,0,1-.05-1.63A1.61,1.61,0,0,0,38.41,1.42ZM4.48,8.05s0-.25.1-.3,2-.65,2-.65L7.8,7s2.91,2.05,3.82,2.59a1.44,1.44,0,0,0,.31.77l1.46.61c0,.22,1,.48,1,.48L30.31,22.25s-.1.12-.09.17c0,.25.63.62.63.62l.83.1,3.16,2.24-.25,1.84-.85,2.68-1.39,2.84-4,0-.8-.38L22.42,26.9s-.1-.56-.22-.63a5.08,5.08,0,0,1-.79-.73l-.54-.25a5.86,5.86,0,0,0-.32-.84,2.33,2.33,0,0,0-.79-.8,1.27,1.27,0,0,0-.45,0,11,11,0,0,0-.86-1.2c-.06-.06-.33,0-.33,0l-3.06-3.18a6.38,6.38,0,0,0-.53-.91.55.55,0,0,0-.48-.14L4.48,8.05Zm19.08.76V8.66l5.34-1.35.76-.08,2.26,1.39.15,1-.8,4.54-.46.24-1-.84-.33-.08-6-4.68ZM7.64,24.11l7.42,7.31-.07.25L9.9,33.24,8.7,33l-.38.1L5.13,30.67V30Z"/></g></g></svg>