<svg xmlns="http://www.w3.org/2000/svg" viewBox="0 0 50 31.74"><g id="Layer_2" data-name="Layer 2"><g id="used"><path d="M39,0a1.75,1.75,0,0,0,.85,0H40c.31.26,1.2.07,1.57,0h.32a.87.87,0,0,0,.53,0h.4A3.7,3.7,0,0,0,44,.14c.32,0,1-.05,1.18.25a2.13,2.13,0,0,1,1.7.13,2.29,2.29,0,0,1,.67,1.83c0,.74,0,1.49.07,2.21s-.17,1.83.86,1.21c.4.16.49,0,.88,0a.75.75,0,0,0,.37.08,2.89,2.89,0,0,1,.25.57,2.69,2.69,0,0,0,0,1v.1a.3.3,0,0,0,0,.26v.72c-.09.05-.14.16-.25.16s.08.17,0,.27a5.16,5.16,0,0,0-.87.06,5,5,0,0,0-.78,0c-.46,0-.4,0-.45.4a4.73,4.73,0,0,0,0,.75c0,.15.08.39.1.56a3.71,3.71,0,0,1,0,.94c-.06.65,0,1.32,0,2,0,1.14-.06,2.32,0,3.48,0,.59.06,1.22,0,1.82s0,2.6,0,3-.17.63.09.82a2.76,2.76,0,0,0,.65,0l1.28.05,0,.23.25.17V24a.37.37,0,0,0,0,.29v.08a3.79,3.79,0,0,0,0,1v.14c-.1,0-.16.31-.27.46l-.12-.12c0,.11-.12.08-.18.07l-.06.13c-.37-.21-.54,0-.89-.05s-.5-.4-.64.16a4.82,4.82,0,0,0,0,1c0,.47,0,.94,0,1.41a3.91,3.91,0,0,1-.44,2.55,1.41,1.41,0,0,1-.77.47c-.23.05-1.13,0-1.25.18H44.13a20.62,20.62,0,0,0-2.72-.1c-1,0-1.92,0-2.88,0s-2.07,0-3.09,0c-.34,0-3,0-3.12,0-.39,0-1.1.18-1.45,0-.18.28-1,.11-1.28.12-.43,0-.86,0-1.29,0l-2.69-.06a40.13,40.13,0,0,0-5.21,0c-.11,0-.14,0-.17-.08a.13.13,0,0,1-.19-.12c-.08.11-.08.11-.2.12l-.06.1c-.12,0-.22-.11-.34-.12a3.61,3.61,0,0,0-.55.12.21.21,0,0,0-.28,0c-.16-.29-.33-.1-.58,0a3.94,3.94,0,0,1-1.19.05c-.43,0-.86,0-1.29,0-.25,0-.9-.09-1.1.06h-.18a.17.17,0,0,0-.21,0H11.78c-.14,0-.4-.11-.53,0H9.11c-.28-.27-1.36-.1-1.75-.1-.67,0-1.34-.09-2-.06a8.3,8.3,0,0,1-1.93-.06,1.59,1.59,0,0,1-1-.7c-.16-.26-.43-.94-.23-1.22a2.93,2.93,0,0,1,0-1.18c0-.52,0-1.09,0-1.62,0-.76,0-.83-.74-.79a2.31,2.31,0,0,1-.87,0c-.22-.07-.22-.24-.46-.17,0-.13-.08-.6-.19-.69v-.33a.32.32,0,0,0,0-.4V23.35c.05-.09.05-.21.13-.28a2,2,0,0,0,.41-.17c0-.29.79-.17,1-.18.6,0,.64,0,.64-.64,0-.88,0-1.75,0-2.63,0-.68.08-1.35,0-2-.1-1,.12-2,.07-2.94.19-.44-.06-1.3-.06-1.79,0-.67,0-1.33,0-2,0-.4.14-1.5-.15-1.67a2.86,2.86,0,0,0-.52,0C1.11,9,.67,9,.25,9l0-.25A1.22,1.22,0,0,1,0,8.53V7.81c.09-.11.09-.15,0-.26v-.1c.16-.11.06-.91,0-1a3.81,3.81,0,0,1,.29-.57.71.71,0,0,0,.38-.09c.34.21.52.05.87,0,.91.56.61-.59.63-1.23s-.06-1.11,0-1.63A8.73,8.73,0,0,1,2.21,1c.24-.75.91-.78,1.53-1h.49A1.22,1.22,0,0,0,4.8,0H6.65A24.9,24.9,0,0,0,9.38.09c1,0,2.13,0,3.19,0s1.95,0,2.92,0l4.59,0h4.24c.88,0,1.75,0,2.62,0,.44,0,.88,0,1.31,0a5.67,5.67,0,0,1,1.3,0c.18,0,.31.23.5.25s.41-.18.62-.22a5.1,5.1,0,0,1,1.56,0C32.22.24,36,0,36,0a7,7,0,0,0,2.32,0Zm5.7,3.44c-.28-.25-1.17,0-1.53-.08a11.09,11.09,0,0,0-1.63,0c-.95.06-1.94,0-2.9-.06-1.91,0-3.84,0-5.74,0-2.12,0-4.24.1-6.37,0-.88,0-1.78-.09-2.65-.09l-5.09,0c-.67,0-1.34,0-2,0-1.25,0-2.49.05-3.75.08-1.11,0-2.29-.13-3.37,0a13.38,13.38,0,0,1-1.79,0c-.34,0-.67-.09-1-.12s-.64.1-.9,0l-.15.1,0-.1a2.66,2.66,0,0,0-.63,0,6.36,6.36,0,0,0,0,1.63c-.1.1-.09.35-.1.49a2,2,0,0,1,.11.32,1,1,0,0,1-.1.3c0,.5.11.89.1,1.41,0,1-.06,2.05,0,3.06s.05,1.86.09,2.79S5.1,15,5.12,15.93c0,1.84,0,3.68,0,5.53,0,.91,0,1.83,0,2.74,0,.38,0,2.74,0,3s0,.52,0,.78,0,.39.37.44.88,0,1.3,0a4.17,4.17,0,0,1,1,0c.31.13,0,.05.17.23.1,0,.1,0,.19-.06a.29.29,0,0,1,.56,0,4.49,4.49,0,0,0,1.32,0c.58,0,1.15,0,1.73-.07,1.35-.1,2.72,0,4.08,0a38.31,38.31,0,0,1,4,0c.64,0,1.28-.07,1.93-.05h4c1.05,0,2.12,0,3.18,0,2,0,4.09.13,6.13,0,1,0,2-.08,3-.09s2.15.15,3.16,0a11.47,11.47,0,0,1,1.76,0c.41,0,1.39.36,1.72.1.52-.39,0-2.27,0-2.9l.11-.06a8.51,8.51,0,0,1-.06-2c0-.64,0-1.27,0-1.91,0-1.26,0-2.52-.07-3.78,0-.62,0-1.25,0-1.87s.1-1.19.09-1.76-.1-1.27-.1-1.91c0-.37.06-.74,0-1.1a1.71,1.71,0,0,0,0-.32c0-.09-.15-.11-.08-.22h.16c-.28-.28-.13-1-.13-1.34,0-.54,0-1.08,0-1.62s0-1.16,0-1.74.14-1.27-.19-1.65C44.74,4.22,44.66,3.56,44.67,3.44Z"/><path d="M33.26,23.09c.27.19,0,1.12-.07,1.39a1.67,1.67,0,0,1-1.72,1c-.77,0-1.54.06-2.32.06a7.78,7.78,0,0,1-2.21-.08c-.42.15-.35-.09-.39-.39s-.16-.58.14-.56c-.47-.38-.2-2.11-.21-2.72,0-1.06,0-2.11,0-3.16,0-.46,0-.91,0-1.36s-.27-.59-.37-1a4.16,4.16,0,0,1,.11-2.45.43.43,0,0,1,.3,0,9.9,9.9,0,0,0,0-1.63c0-.52,0-1-.05-1.49,0-1.3-.06-2.65,0-3.94,0-.69.24-.63.91-.64.48,0,1,.08,1.44.07s1.13-.06,1.7-.06a6.49,6.49,0,0,1,1.56.08c1.22-.38,1.13,1.43,1.13,2.07a12.78,12.78,0,0,1-.18,3.22l.11.08a7.26,7.26,0,0,0,.07,1.55,2.76,2.76,0,0,1-.15.88,1.59,1.59,0,0,1-.31.87c-.31.35-.43.18,0,.59-.05.13.16.35.24.45a1.1,1.1,0,0,1,.29.68c0,.64,0,1.3,0,1.93s0,1.44,0,2.16A6.44,6.44,0,0,1,33.26,23.09Zm-3.62-6.42c-.56.22-.45.6-.45,1.17s0,1.11,0,1.66a14.08,14.08,0,0,1-.13,3.18l.39.27.23-.12c.2.16.34,0,.52.16a.46.46,0,0,0,.4-.33c.06-.18-.1-.13-.1-.32s-.14-1.27.18-1.39a4.46,4.46,0,0,1-.18-1.89,15.28,15.28,0,0,1,0-1.79.68.68,0,0,0-.08-.5.42.42,0,0,0-.27,0c-.1-.09-.18.07-.29,0l0-.14-.15.09Zm-.4-2.86.41.08c.1.16.68.15.82,0s0-.88,0-1.21c0-1,.05-2,.05-3,0-.34.18-.75-.18-.91a1.56,1.56,0,0,0-1.11.11c-.1.13,0,.69,0,.85s0,.45,0,.67.07,1.24-.19,1.3c0,.11.17.12.18.23A14.36,14.36,0,0,0,29.24,13.81Z"/><path d="M21.9,6.57c.07,0,.17-.13.12-.14a5.64,5.64,0,0,1,2.18,0c0,.09.11.28,0,.1.16-.14.25,0,.39.14l-.07.13c.09,0,0,.23.16.25-.2.32-.05.44,0,.75,0,.1-.07.39,0,.46-.18.33-.11.28,0,.71a5.61,5.61,0,0,1,0,1.16c0,.91,0,1.83.06,2.73a25.06,25.06,0,0,1,0,2.6c0,.81.06,1.62,0,2.44-.07,1.39-.21,2.83-.14,4.21a5.87,5.87,0,0,1-.22,2.64,1.33,1.33,0,0,1-.71.69c-.19.08-.81,0-.91.17l-.15-.13a4.37,4.37,0,0,1-1.3,0c-.44,0-.92.07-1.36.09a5.69,5.69,0,0,1-1.93,0c-1-.36-.9-1.7-.91-2.53,0-1,0-2.06,0-3.08.1-1.85,0-3.72,0-5.57,0-.92,0-1.84,0-2.75,0-.39,0-4.2,0-4.52.16-.4-.21-.82.36-1a2.17,2.17,0,0,1,1,.14c.19-.1,1.43-.21,1.45.15s0,2.63,0,3.8,0,2.47.06,3.71-.13,2.65,0,3.91a14.54,14.54,0,0,1,0,2c0,.3-.07.6-.09.9a2.3,2.3,0,0,1,0,.87l.09.15-.09,0a6.43,6.43,0,0,0,0,.76c.43.42.32.2.77.08.22-.06,1-.07.55.26a.26.26,0,0,0,.3-.09l-.07.17c.43.26.36-1.65.37-1.83a9,9,0,0,1,0-1.72l.19,0c0-.08,0-.13,0-.2-.31-.15-.12-.58,0-.74A8.93,8.93,0,0,0,21.91,17c0-1.07-.07-2.15,0-3.23,0-1.26,0-2.52,0-3.78,0-.65,0-1.31,0-1.95C21.84,7.63,21.7,6.89,21.9,6.57Z"/><path d="M37.71,22.69c.3.08.72.24,1,0,.07,0,.17,0,.19.12s.31-.12.42.08a1.55,1.55,0,0,0,.22-.8c-.22-.16-.14-.81-.15-1.08,0-.52,0-1.05,0-1.57s.17-2.84-.26-2.82c-.19-.27-.32-.24-.38-.59a4.59,4.59,0,0,1,0-1c0-.29,0-1.36.4-1.19.16-.08.63-.13.76,0,.34-.28,1.53-.08,2-.12,0,.23.17.39.21.62a5.06,5.06,0,0,1,0,.95c0,.64,0,1.27,0,1.91,0,1.24.06,2.5,0,3.75,0,.54,0,1.06,0,1.6s.07.81,0,1.22a1.75,1.75,0,0,1-2.26,1.69,7.88,7.88,0,0,1-1.61,0c-.59,0-1.21.08-1.79,0C35,25.4,35,23.69,35,22.54s.1-2.59,0-3.87c-.06-.73.12-1.44.07-2.16a5,5,0,0,1,0-.86c0-.32.19-.51,0-.83.24-.39-.34-1.86,0-2.09-.22-.2-.1-1-.1-1.24s0-.82-.06-1.24a11.92,11.92,0,0,1,.1-2.67c.34-2.12,2.76-1.47,4.3-1.49a3.7,3.7,0,0,1,2.16.27c.73.5.41,1.44.43,2.19,0,.43,0,.86,0,1.29a2.66,2.66,0,0,1,0,.8c-.2.42,0,.13-.35.23s-2.07.27-2-.4h.21c-.48-.46.13-1.43-.44-1.71-.28-.13-.78,0-1.09,0s-.52,0-.51.46c0,1.5.1,3,.13,4.54s0,2.87,0,4.32c0,.85,0,1.7,0,2.56,0,.33,0,.68,0,1a4.46,4.46,0,0,1,0,.63C37.84,22.41,37.69,22.58,37.71,22.69Z"/><path d="M11,25.47c-.26.23-2.53.25-2.42,0-.18-.39-.3-.41-.32-.89a6.3,6.3,0,0,1,0-1.68,10.87,10.87,0,0,1,.06-2.61c0-.31-.29-2.12,0-2.26l.09.06c.17-.17-.21-.44-.29-.5l-.14,0c-.23-.41-.27-2.76.28-2.9.16-.28,0-1.14,0-1.5,0-.55,0-1.11,0-1.66,0-1,0-2.06,0-3.09a8.55,8.55,0,0,1,0-1.82c.13-.71.92-.47,1.5-.48s1.45,0,2.17,0c.22,0,1.37.17,1.47,0,.62.14,1.35-.1,1.79.51s.23,1.81.22,2.53c0,1.72,0,3.44-.06,5.15-.06,1.3.47,3.17-1.27,3.39-.71.09-1.44,0-2.15.05-.19,0-.66-.12-.8,0s.16.62,0,.76a29.48,29.48,0,0,1,.06,3.64c0,.41,0,.85,0,1.28s.07.77.05,1.15S10.92,25.28,11,25.47Zm1.57-12.16a18.89,18.89,0,0,1-.09-2.71c0-.34.2-1.85-.28-1.62-.23-.06-.66-.2-.88-.09s-.2.24-.2.5c0,.6,0,1.23,0,1.84s.05,1.22.05,1.84A9,9,0,0,1,11,14.28c0,.11-.11.13-.09.27s.18.18.21.29c.46.11.91,0,1.36.12.05,0,.18-.71.06-.57C12.49,14.15,12.32,13.52,12.55,13.31Z"/></g></g></svg>