<svg xmlns="http://www.w3.org/2000/svg" viewBox="0 0 24 24" >
<path d="M0.00311425 2.72202V3.60028C0.00311425 3.60028 -0.00182726 13.2003 0.000738954 13.2003C0.000738954 14.4003 0.35453 14.804 0.705032 15.4079C1.07098 16.0387 1.59788 16.5209 2.10704 17.0165C3.5188 18.3913 4.94285 19.7544 6.3855 21.0975C7.14096 21.8009 7.9401 22.4591 8.73038 23.1252C9.16268 23.4896 9.69211 23.7058 10.2317 23.818C10.746 23.9247 11.47 23.9934 12.0011 24.0003C14.1203 24.0277 15.8817 23.9866 18.0011 24.0003C19.2874 24.0084 20.851 24.0003 22.2011 24.0003C22.2011 24.0003 22.2011 24.0003 21.6784 23.5737C20.9312 22.8233 20.1831 22.0737 19.4394 21.3198C18.6078 20.4768 17.7818 19.6281 16.9501 18.7853C16.7957 18.6287 16.7281 18.4608 16.7265 18.2339C16.7065 15.6091 16.6751 12.9844 16.6456 10.3595C16.6445 10.273 16.6316 10.1867 16.6186 10.0339C16.5025 10.1356 16.4347 10.1923 16.3699 10.2521C15.0125 11.5081 13.6545 12.7639 12.2988 14.022C12.1892 14.1236 12.0893 14.1486 11.9723 14.0414C11.8955 13.971 11.8122 13.9076 11.7376 13.8354C10.5805 12.7141 9.42518 11.5911 8.26743 10.4706C8.02582 10.2367 7.77624 10.0109 7.53033 9.78136L7.43587 9.82328C7.4365 12.9859 7.57124 16.148 7.57542 19.3164C7.47525 19.2819 7.41485 19.244 7.36445 19.1958C7.01155 18.858 6.658 18.5207 6.30978 18.1781C5.56851 17.4487 4.82774 16.7189 4.09534 15.9813C4.01683 15.902 3.95719 15.7696 3.95313 15.6595C3.93123 15.0716 3.92945 14.4833 3.92122 13.8951C3.88716 11.4362 3.85057 8.97739 3.8241 6.51829C3.82195 6.31394 3.76167 6.16917 3.61415 6.0314C2.55872 5.04473 1.50873 4.05218 0.456338 3.06213C0.333257 2.94639 0.205744 2.83514 0.0802569 2.72202C0.0541719 2.73866 0.00311425 2.72202 0.00311425 2.72202Z" />
<path d="M13.2123 0.000406837L3.6 0.00063264C3.52339 0.000757772 2.4 0 2.4 0C5.45765 3.14395 8.87651 6.1628 11.993 9.14082C13.5689 7.6037 15.1248 6.08609 16.6862 4.56298C16.7623 4.59652 16.7976 4.60202 16.818 4.62229C17.9026 5.69756 18.9876 6.77244 20.0656 7.85408C20.1385 7.92729 20.1862 8.05067 20.1958 8.15515C20.2233 8.45284 20.2328 8.75278 20.2357 9.05198C20.2614 11.6871 20.2856 14.3224 20.3051 16.9576C20.3066 17.1612 20.3492 17.2468 20.5517 17.4122L21.9699 18.7853C22.8308 19.6074 23.3083 20.0096 23.3083 20.0096C23.5197 20.2104 23.7456 20.3963 23.9997 20.6198C23.9997 20.4754 24.0005 20.3459 23.9995 20.2164C23.9836 18.2113 24.015 16.2518 23.9928 14.2468C23.9928 13.0468 23.9928 11.2468 23.9928 9.78136C23.9723 9.00266 23.4966 8.31182 22.954 7.76537C22.4639 7.27172 21.9493 6.80197 21.451 6.31621C19.7249 4.63356 18.0016 2.94777 16.2761 1.26424C15.4348 0.443501 14.4463 0.00028464 13.2425 0.00028464C13.2323 0.00028464 13.2225 0.000281705 13.2123 0.000406837Z" />
<path d="M0.00107424 18.0003C0.00107424 18.0003 0.00577961 24.0003 0.00211264 24.0003C0.00211264 24.0003 0.47437 23.9999 0.602136 24.0003C2.02466 24.005 3.37949 24.0015 4.80214 24.0003C4.88495 24.0003 5.31932 23.9989 5.40214 24.0003C5.26399 23.9915 5.54041 24.0027 5.40214 24.0003C5.45507 24.0037 5.91045 24.0003 5.91045 24.0003C6.00107 24.0003 6.00107 24.0003 6.00107 24.0003C4.14156 22.2105 3.06033 20.9901 1.20107 19.2003L0.00107424 18.0003Z" />
<path d="M18.3125 0L18.4326 0.114768L24 5.4V3V1.5V0H18.3125Z" />
</svg>
