<svg xmlns="http://www.w3.org/2000/svg" xmlns:xlink="http://www.w3.org/1999/xlink" width="1080" zoomAndPan="magnify" viewBox="0 0 810 809.999993" height="1080" preserveAspectRatio="xMidYMid meet" version="1.0"><rect x="-81" width="972" fill="#ffffff" y="-80.999999" height="971.999992" fill-opacity="1"/><rect x="-81" width="972" fill="#ffffff" y="-80.999999" height="971.999992" fill-opacity="1"/><path fill="#ff3131" d="M 618.570312 143.640625 L 570.542969 191.667969 C 464.636719 109.25 311.445312 116.742188 214.078125 214.078125 C 133.953125 294.199219 114.714844 412.121094 156.363281 510.402344 L 237.9375 428.828125 C 230.75 378.101562 246.644531 324.707031 285.660156 285.660156 C 343.371094 227.949219 432.539062 220.792969 498.046875 264.195312 L 448.640625 313.605469 C 411.007812 295.648438 364.601562 302.230469 333.417969 333.417969 C 302.230469 364.566406 295.617188 411.007812 313.605469 448.640625 L 95.917969 666.328125 C 94.769531 548.203125 75.972656 503.921875 69.324219 440.132812 C 59.164062 342.460938 91.496094 241.210938 166.355469 166.355469 C 290.082031 42.625 486 35.066406 618.605469 143.640625 Z M 714.082031 143.707031 C 715.230469 261.832031 734.027344 306.078125 740.675781 369.867188 C 750.835938 467.539062 718.503906 568.789062 643.644531 643.644531 C 519.917969 767.375 324 774.933594 191.394531 666.359375 L 239.457031 618.332031 C 345.363281 700.75 498.554688 693.257812 595.921875 595.921875 C 676.046875 515.800781 695.285156 397.878906 653.636719 299.597656 L 572.0625 381.171875 C 579.25 431.898438 563.355469 485.292969 524.339844 524.339844 C 466.628906 582.050781 377.460938 589.207031 311.953125 545.804688 L 361.359375 496.394531 C 398.992188 514.351562 445.398438 507.769531 476.582031 476.582031 C 507.769531 445.433594 514.382812 398.992188 496.394531 361.359375 L 714.082031 143.671875 Z M 714.082031 143.707031 " fill-opacity="1" fill-rule="nonzero"/></svg>