<svg xmlns="http://www.w3.org/2000/svg" xmlns:xlink="http://www.w3.org/1999/xlink" width="1080" zoomAndPan="magnify" viewBox="0 0 810 809.999993" height="1080" preserveAspectRatio="xMidYMid meet" version="1.0"><defs><clipPath id="ed3a6911bd"><path d="M 16.199219 104 L 736 104 L 736 793.949219 L 16.199219 793.949219 Z M 16.199219 104 " clip-rule="nonzero"/></clipPath><clipPath id="d307f4181b"><path d="M 93 16.199219 L 793.949219 16.199219 L 793.949219 685 L 93 685 Z M 93 16.199219 " clip-rule="nonzero"/></clipPath><clipPath id="b22312027c"><path d="M 16.199219 599 L 211 599 L 211 793.949219 L 16.199219 793.949219 Z M 16.199219 599 " clip-rule="nonzero"/></clipPath><clipPath id="58781f8275"><path d="M 609 16.199219 L 793.949219 16.199219 L 793.949219 192 L 609 192 Z M 609 16.199219 " clip-rule="nonzero"/></clipPath></defs><rect x="-81" width="972" fill="#ffffff" y="-80.999999" height="971.999992" fill-opacity="1"/><rect x="-81" width="972" fill="#ffffff" y="-80.999999" height="971.999992" fill-opacity="1"/><g clip-path="url(#ed3a6911bd)"><path fill="#ff3131" d="M 16.300781 104.394531 L 16.300781 132.847656 C 16.300781 132.847656 16.140625 443.886719 16.222656 443.886719 C 16.222656 482.769531 27.6875 495.847656 39.042969 515.414062 C 50.898438 535.851562 67.972656 551.476562 84.46875 567.53125 C 130.207031 612.078125 176.347656 656.242188 223.089844 699.757812 C 247.566406 722.546875 273.457031 743.871094 299.0625 765.453125 C 313.070312 777.261719 330.222656 784.265625 347.707031 787.902344 C 364.371094 791.359375 387.828125 793.582031 405.035156 793.808594 C 473.695312 794.695312 530.765625 793.363281 599.433594 793.808594 C 641.109375 794.070312 691.769531 793.808594 735.511719 793.808594 C 735.511719 793.808594 735.511719 793.808594 718.578125 779.984375 C 694.367188 755.671875 670.128906 731.386719 646.035156 706.960938 C 619.089844 679.644531 592.328125 652.148438 565.382812 624.84375 C 560.378906 619.769531 558.1875 614.328125 558.136719 606.976562 C 557.488281 521.933594 556.472656 436.894531 555.515625 351.847656 C 555.480469 349.042969 555.0625 346.25 554.640625 341.296875 C 550.878906 344.59375 548.683594 346.429688 546.582031 348.367188 C 502.605469 389.0625 458.605469 429.75 414.679688 470.511719 C 411.128906 473.804688 407.890625 474.613281 404.101562 471.140625 C 401.613281 468.859375 398.914062 466.804688 396.496094 464.464844 C 359.007812 428.136719 321.574219 391.75 284.0625 355.445312 C 276.234375 347.867188 268.148438 340.550781 260.183594 333.113281 L 257.121094 334.472656 C 257.140625 436.941406 261.507812 539.394531 261.644531 642.050781 C 258.398438 640.933594 256.441406 639.703125 254.808594 638.140625 C 243.375 627.199219 231.917969 616.269531 220.636719 605.167969 C 196.621094 581.535156 172.617188 557.890625 148.886719 533.992188 C 146.34375 531.421875 144.414062 527.132812 144.28125 523.566406 C 143.570312 504.519531 143.515625 485.457031 143.246094 466.398438 C 142.144531 386.730469 140.957031 307.066406 140.101562 227.390625 C 140.03125 220.769531 138.078125 216.082031 133.296875 211.617188 C 99.101562 179.648438 65.082031 147.492188 30.984375 115.414062 C 26.996094 111.664062 22.867188 108.058594 18.800781 104.394531 C 17.957031 104.933594 16.300781 104.394531 16.300781 104.394531 Z M 16.300781 104.394531 " fill-opacity="1" fill-rule="nonzero"/></g><g clip-path="url(#d307f4181b)"><path fill="#ff3131" d="M 444.277344 16.214844 L 132.839844 16.21875 C 130.359375 16.222656 93.960938 16.199219 93.960938 16.199219 C 193.027344 118.0625 303.796875 215.875 404.773438 312.363281 C 455.832031 262.558594 506.242188 213.390625 556.832031 164.039062 C 559.296875 165.125 560.441406 165.304688 561.101562 165.960938 C 596.242188 200.800781 631.394531 235.625 666.324219 270.671875 C 668.683594 273.042969 670.230469 277.039062 670.542969 280.425781 C 671.433594 290.070312 671.742188 299.789062 671.835938 309.484375 C 672.667969 394.859375 673.453125 480.246094 674.082031 565.625 C 674.132812 572.222656 675.511719 574.996094 682.074219 580.355469 L 728.023438 624.84375 C 755.914062 651.476562 771.386719 664.507812 771.386719 664.507812 C 778.234375 671.015625 785.554688 677.039062 793.789062 684.28125 C 793.789062 679.601562 793.8125 675.40625 793.78125 671.210938 C 793.265625 606.246094 794.285156 542.757812 793.5625 477.796875 C 793.5625 438.914062 793.5625 380.59375 793.5625 333.113281 C 792.898438 307.886719 777.488281 285.503906 759.90625 267.796875 C 744.027344 251.804688 727.355469 236.582031 711.210938 220.84375 C 655.285156 166.328125 599.449219 111.707031 543.542969 57.160156 C 516.285156 30.570312 484.257812 16.210938 445.253906 16.210938 C 444.925781 16.210938 444.609375 16.210938 444.277344 16.214844 Z M 444.277344 16.214844 " fill-opacity="1" fill-rule="nonzero"/></g><g clip-path="url(#b22312027c)"><path fill="#ff3131" d="M 16.234375 599.40625 C 16.234375 599.40625 16.386719 793.808594 16.269531 793.808594 C 16.269531 793.808594 31.570312 793.792969 35.710938 793.808594 C 81.796875 793.960938 125.695312 793.847656 171.789062 793.808594 C 174.472656 793.808594 188.546875 793.761719 191.230469 793.808594 C 186.753906 793.523438 195.707031 793.886719 191.230469 793.808594 C 192.945312 793.917969 207.699219 793.808594 207.699219 793.808594 C 210.632812 793.808594 210.632812 793.808594 210.632812 793.808594 C 150.386719 735.816406 115.355469 696.277344 55.113281 638.289062 Z M 16.234375 599.40625 " fill-opacity="1" fill-rule="nonzero"/></g><g clip-path="url(#58781f8275)"><path fill="#ff3131" d="M 609.523438 16.199219 L 613.414062 19.917969 L 793.796875 191.160156 L 793.796875 16.199219 Z M 609.523438 16.199219 " fill-opacity="1" fill-rule="nonzero"/></g></svg>