<svg xmlns="http://www.w3.org/2000/svg" xmlns:xlink="http://www.w3.org/1999/xlink" width="1080" zoomAndPan="magnify" viewBox="0 0 810 809.999993" height="1080" preserveAspectRatio="xMidYMid meet" version="1.0"><rect x="-81" width="972" fill="#ffffff" y="-80.999999" height="971.999992" fill-opacity="1"/><rect x="-81" width="972" fill="#ffffff" y="-80.999999" height="971.999992" fill-opacity="1"/><path fill="#ff3131" d="M 530.621094 739.988281 L 279.378906 739.988281 C 277.769531 740.007812 276.175781 739.84375 274.601562 739.496094 C 273.03125 739.148438 271.515625 738.625 270.0625 737.925781 C 268.613281 737.230469 267.257812 736.375 266.003906 735.367188 C 264.746094 734.355469 263.621094 733.21875 262.628906 731.949219 L 4.019531 407.847656 C 2.355469 405.390625 1.179688 402.722656 0.488281 399.839844 C -0.207031 396.953125 -0.367188 394.039062 0 391.097656 L 0 75.707031 C 0 71.6875 8.039062 67.667969 8.039062 71.6875 L 534.640625 727.761719 C 534.640625 731.949219 534.640625 739.988281 530.621094 739.988281 Z M 530.621094 739.988281 " fill-opacity="1" fill-rule="nonzero"/><path fill="#ff3131" d="M 810 391.601562 C 810.144531 392.703125 810.160156 393.8125 810.058594 394.921875 C 809.953125 396.027344 809.726562 397.113281 809.378906 398.171875 C 809.03125 399.226562 808.570312 400.234375 807.996094 401.1875 C 807.421875 402.144531 806.75 403.023438 805.980469 403.828125 L 729.101562 504.324219 C 726.8125 506.542969 724.238281 508.351562 721.375 509.753906 C 718.515625 511.15625 715.507812 512.082031 712.351562 512.53125 L 461.109375 512.53125 C 457.089844 512.53125 452.902344 508.511719 457.089844 504.324219 L 801.960938 71.6875 C 805.980469 67.667969 810 71.6875 810 75.707031 Z M 810 391.601562 " fill-opacity="1" fill-rule="nonzero"/></svg>